<svg width="32" height="22" viewBox="0 0 32 22" fill="none" xmlns="http://www.w3.org/2000/svg">
<path d="M0 3C0 1.34315 1.34315 0 3 0H29C30.6569 0 32 1.34315 32 3V12V19C32 20.6569 30.6569 22 29 22H3C1.34315 22 0 20.6569 0 19V12V3Z" fill="#282B31"/>
<path d="M11.2223 16V4.36364H15.8814C16.7375 4.36364 17.4515 4.49053 18.0234 4.74432C18.5954 4.99811 19.0253 5.35038 19.3132 5.80114C19.6011 6.24811 19.745 6.76326 19.745 7.34659C19.745 7.80114 19.6541 8.20076 19.4723 8.54545C19.2905 8.88636 19.0405 9.16667 18.7223 9.38636C18.4079 9.60227 18.0481 9.75568 17.6428 9.84659V9.96023C18.0859 9.97917 18.5007 10.1042 18.8871 10.3352C19.2772 10.5663 19.5935 10.8902 19.8359 11.3068C20.0784 11.7197 20.1996 12.2121 20.1996 12.7841C20.1996 13.4015 20.0462 13.9527 19.7393 14.4375C19.4363 14.9186 18.9875 15.2992 18.3928 15.5795C17.7981 15.8598 17.0651 16 16.1939 16H11.2223ZM13.6825 13.9886H15.6882C16.3738 13.9886 16.8738 13.858 17.1882 13.5966C17.5026 13.3314 17.6598 12.9792 17.6598 12.5398C17.6598 12.2178 17.5821 11.9337 17.4268 11.6875C17.2715 11.4413 17.05 11.2481 16.7621 11.108C16.478 10.9678 16.139 10.8977 15.745 10.8977H13.6825V13.9886ZM13.6825 9.23295H15.5064C15.8435 9.23295 16.1428 9.17424 16.4041 9.05682C16.6693 8.93561 16.8776 8.76515 17.0291 8.54545C17.1844 8.32576 17.2621 8.0625 17.2621 7.75568C17.2621 7.33523 17.1125 6.99621 16.8132 6.73864C16.5178 6.48106 16.0973 6.35227 15.5518 6.35227H13.6825V9.23295Z" fill="white"/>
</svg>
