<svg width="32" height="22" viewBox="0 0 32 22" fill="none" xmlns="http://www.w3.org/2000/svg">
<path d="M0 3C0 1.34315 1.34315 0 3 0H29C30.6569 0 32 1.34315 32 3V12V19C32 20.6569 30.6569 22 29 22H3C1.34315 22 0 20.6569 0 19V12V3Z" fill="#282B31"/>
<path d="M20.7628 8.4375H18.2741C18.2287 8.11553 18.1359 7.82955 17.9957 7.57955C17.8556 7.32576 17.6757 7.10985 17.456 6.93182C17.2363 6.75379 16.9825 6.61742 16.6946 6.52273C16.4105 6.42803 16.1018 6.38068 15.7685 6.38068C15.1662 6.38068 14.6416 6.5303 14.1946 6.82955C13.7476 7.125 13.401 7.55682 13.1548 8.125C12.9086 8.68939 12.7855 9.375 12.7855 10.1818C12.7855 11.0114 12.9086 11.7083 13.1548 12.2727C13.4048 12.8371 13.7533 13.2633 14.2003 13.5511C14.6473 13.839 15.1643 13.983 15.7514 13.983C16.081 13.983 16.3859 13.9394 16.6662 13.8523C16.9503 13.7652 17.2022 13.6383 17.4219 13.4716C17.6416 13.3011 17.8234 13.0947 17.9673 12.8523C18.1151 12.6098 18.2173 12.3333 18.2741 12.0227L20.7628 12.0341C20.6984 12.5682 20.5374 13.0833 20.2798 13.5795C20.026 14.072 19.6832 14.5133 19.2514 14.9034C18.8234 15.2898 18.312 15.5966 17.7173 15.8239C17.1264 16.0473 16.4579 16.1591 15.7116 16.1591C14.6738 16.1591 13.7457 15.9242 12.9276 15.4545C12.1132 14.9848 11.4692 14.3049 10.9957 13.4148C10.526 12.5246 10.2912 11.447 10.2912 10.1818C10.2912 8.91288 10.5298 7.83333 11.0071 6.94318C11.4844 6.05303 12.1321 5.375 12.9503 4.90909C13.7685 4.43939 14.6889 4.20455 15.7116 4.20455C16.3859 4.20455 17.0109 4.29924 17.5866 4.48864C18.1662 4.67803 18.6795 4.95455 19.1264 5.31818C19.5734 5.67803 19.937 6.11932 20.2173 6.64205C20.5014 7.16477 20.6832 7.76326 20.7628 8.4375Z" fill="white"/>
</svg>
