<svg width="32" height="22" viewBox="0 0 32 22" fill="none" xmlns="http://www.w3.org/2000/svg">
<path d="M0 3C0 1.34315 1.34315 0 3 0H29C30.6569 0 32 1.34315 32 3V12V19C32 20.6569 30.6569 22 29 22H3C1.34315 22 0 20.6569 0 19V12V3Z" fill="#282B31"/>
<path d="M15.3161 16H11.1911V4.36364H15.3501C16.5206 4.36364 17.5282 4.59659 18.3729 5.0625C19.2176 5.52462 19.8672 6.18939 20.3217 7.05682C20.7801 7.92424 21.0092 8.96212 21.0092 10.1705C21.0092 11.3826 20.7801 12.4242 20.3217 13.2955C19.8672 14.1667 19.2138 14.8352 18.3615 15.3011C17.513 15.767 16.4979 16 15.3161 16ZM13.6513 13.892H15.2138C15.9411 13.892 16.5528 13.7633 17.049 13.5057C17.549 13.2443 17.924 12.8409 18.174 12.2955C18.4278 11.7462 18.5547 11.0379 18.5547 10.1705C18.5547 9.31061 18.4278 8.60795 18.174 8.0625C17.924 7.51705 17.5509 7.11553 17.0547 6.85795C16.5585 6.60038 15.9467 6.47159 15.2195 6.47159H13.6513V13.892Z" fill="white"/>
</svg>
