<svg width="32" height="22" viewBox="0 0 32 22" fill="none" xmlns="http://www.w3.org/2000/svg">
<path d="M0 3C0 1.34315 1.34315 0 3 0H29C30.6569 0 32 1.34315 32 3V12V19C32 20.6569 30.6569 22 29 22H3C1.34315 22 0 20.6569 0 19V12V3Z" fill="#282B31"/>
<path d="M18.1413 8.125C18.0618 7.84848 17.95 7.60417 17.8061 7.39205C17.6622 7.17614 17.486 6.99432 17.2777 6.84659C17.0732 6.69508 16.8383 6.57955 16.5732 6.5C16.3118 6.42045 16.022 6.38068 15.7038 6.38068C15.1091 6.38068 14.5864 6.52841 14.1357 6.82386C13.6887 7.11932 13.3402 7.54924 13.0902 8.11364C12.8402 8.67424 12.7152 9.35985 12.7152 10.1705C12.7152 10.9811 12.8383 11.6705 13.0845 12.2386C13.3307 12.8068 13.6792 13.2405 14.13 13.5398C14.5807 13.8352 15.1129 13.983 15.7266 13.983C16.2834 13.983 16.7588 13.8845 17.1527 13.6875C17.5504 13.4867 17.8535 13.2045 18.0618 12.8409C18.2739 12.4773 18.38 12.0473 18.38 11.5511L18.88 11.625H15.88V9.77273H20.7493V11.2386C20.7493 12.2614 20.5334 13.1402 20.1016 13.875C19.6697 14.6061 19.075 15.1705 18.3175 15.5682C17.5599 15.9621 16.6925 16.1591 15.7152 16.1591C14.6243 16.1591 13.666 15.9186 12.8402 15.4375C12.0144 14.9527 11.3705 14.2652 10.9084 13.375C10.45 12.4811 10.2209 11.4205 10.2209 10.1932C10.2209 9.25 10.3572 8.40909 10.63 7.67045C10.9065 6.92803 11.2929 6.29924 11.7891 5.78409C12.2853 5.26894 12.8629 4.87689 13.522 4.60795C14.1811 4.33901 14.8951 4.20455 15.6641 4.20455C16.3232 4.20455 16.9368 4.30114 17.505 4.49432C18.0732 4.68371 18.5769 4.95265 19.0163 5.30114C19.4595 5.64962 19.8213 6.06439 20.1016 6.54545C20.3819 7.02273 20.5618 7.54924 20.6413 8.125H18.1413Z" fill="white"/>
</svg>
