<svg width="32" height="22" viewBox="0 0 32 22" fill="none" xmlns="http://www.w3.org/2000/svg">
<path d="M0 3C0 1.34315 1.34315 0 3 0H29C30.6569 0 32 1.34315 32 3V12V19C32 20.6569 30.6569 22 29 22H3C1.34315 22 0 20.6569 0 19V12V3Z" fill="#282B31"/>
<path d="M17.108 4.36364H19.5398V12.4773C19.5398 13.2273 19.3712 13.8788 19.0341 14.4318C18.7008 14.9848 18.2367 15.411 17.642 15.7102C17.0473 16.0095 16.3561 16.1591 15.5682 16.1591C14.8674 16.1591 14.2311 16.036 13.6591 15.7898C13.0909 15.5398 12.6402 15.161 12.3068 14.6534C11.9735 14.142 11.8087 13.5 11.8125 12.7273H14.2614C14.2689 13.0341 14.3314 13.2973 14.4489 13.517C14.5701 13.733 14.7348 13.8996 14.9432 14.017C15.1553 14.1307 15.4053 14.1875 15.6932 14.1875C15.9962 14.1875 16.2519 14.1231 16.4602 13.9943C16.6723 13.8617 16.8333 13.6686 16.9432 13.4148C17.053 13.161 17.108 12.8485 17.108 12.4773V4.36364Z" fill="white"/>
</svg>
