<svg width="32" height="22" viewBox="0 0 32 22" fill="none" xmlns="http://www.w3.org/2000/svg">
<path d="M0 3C0 1.34315 1.34315 0 3 0H29C30.6569 0 32 1.34315 32 3V12V19C32 20.6569 30.6569 22 29 22H3C1.34315 22 0 20.6569 0 19V12V3Z" fill="#282B31"/>
<path d="M21.9467 10.1818C21.9467 11.4508 21.7062 12.5303 21.2251 13.4205C20.7479 14.3106 20.0964 14.9905 19.2706 15.4602C18.4486 15.9261 17.5244 16.1591 16.4979 16.1591C15.4638 16.1591 14.5357 15.9242 13.7138 15.4545C12.8918 14.9848 12.2422 14.3049 11.7649 13.4148C11.2876 12.5246 11.049 11.447 11.049 10.1818C11.049 8.91288 11.2876 7.83333 11.7649 6.94318C12.2422 6.05303 12.8918 5.375 13.7138 4.90909C14.5357 4.43939 15.4638 4.20455 16.4979 4.20455C17.5244 4.20455 18.4486 4.43939 19.2706 4.90909C20.0964 5.375 20.7479 6.05303 21.2251 6.94318C21.7062 7.83333 21.9467 8.91288 21.9467 10.1818ZM19.4524 10.1818C19.4524 9.35985 19.3293 8.66667 19.0831 8.10227C18.8407 7.53788 18.4979 7.10985 18.0547 6.81818C17.6115 6.52652 17.0926 6.38068 16.4979 6.38068C15.9032 6.38068 15.3842 6.52652 14.9411 6.81818C14.4979 7.10985 14.1532 7.53788 13.907 8.10227C13.6645 8.66667 13.5433 9.35985 13.5433 10.1818C13.5433 11.0038 13.6645 11.697 13.907 12.2614C14.1532 12.8258 14.4979 13.2538 14.9411 13.5455C15.3842 13.8371 15.9032 13.983 16.4979 13.983C17.0926 13.983 17.6115 13.8371 18.0547 13.5455C18.4979 13.2538 18.8407 12.8258 19.0831 12.2614C19.3293 11.697 19.4524 11.0038 19.4524 10.1818Z" fill="white"/>
</svg>
