<svg width="32" height="22" viewBox="0 0 32 22" fill="none" xmlns="http://www.w3.org/2000/svg">
<path d="M0 3C0 1.34315 1.34315 0 3 0H29C30.6569 0 32 1.34315 32 3V12V19C32 20.6569 30.6569 22 29 22H3C1.34315 22 0 20.6569 0 19V12V3Z" fill="#282B31"/>
<path d="M12.3317 16V4.36364H16.9226C17.8052 4.36364 18.5571 4.5322 19.1783 4.86932C19.7995 5.20265 20.273 5.66667 20.5987 6.26136C20.9283 6.85227 21.093 7.53409 21.093 8.30682C21.093 9.07955 20.9264 9.76136 20.593 10.3523C20.2597 10.9432 19.7768 11.4034 19.1442 11.733C18.5154 12.0625 17.754 12.2273 16.8601 12.2273H13.9339V10.2557H16.4624C16.9358 10.2557 17.326 10.1742 17.6328 10.0114C17.9434 9.8447 18.1745 9.61553 18.326 9.32386C18.4813 9.02841 18.5589 8.68939 18.5589 8.30682C18.5589 7.92045 18.4813 7.58333 18.326 7.29545C18.1745 7.00379 17.9434 6.77841 17.6328 6.61932C17.3222 6.45644 16.9283 6.375 16.451 6.375H14.7919V16H12.3317Z" fill="white"/>
</svg>
