<svg width="32" height="22" viewBox="0 0 32 22" fill="none" xmlns="http://www.w3.org/2000/svg">
<path d="M0 3C0 1.34315 1.34315 0 3 0H29C30.6569 0 32 1.34315 32 3V12V19C32 20.6569 30.6569 22 29 22H3C1.34315 22 0 20.6569 0 19V12V3Z" fill="#282B31"/>
<path d="M14.6456 11.9545H16.7365L17.7876 13.3068L18.8217 14.5114L20.7706 16.9545H18.4751L17.1342 15.3068L16.4467 14.3295L14.6456 11.9545ZM20.9467 10.1818C20.9467 11.4508 20.7062 12.5303 20.2251 13.4205C19.7479 14.3106 19.0964 14.9905 18.2706 15.4602C17.4486 15.9261 16.5244 16.1591 15.4979 16.1591C14.4638 16.1591 13.5357 15.9242 12.7138 15.4545C11.8918 14.9848 11.2422 14.3049 10.7649 13.4148C10.2876 12.5246 10.049 11.447 10.049 10.1818C10.049 8.91288 10.2876 7.83333 10.7649 6.94318C11.2422 6.05303 11.8918 5.375 12.7138 4.90909C13.5357 4.43939 14.4638 4.20455 15.4979 4.20455C16.5244 4.20455 17.4486 4.43939 18.2706 4.90909C19.0964 5.375 19.7479 6.05303 20.2251 6.94318C20.7062 7.83333 20.9467 8.91288 20.9467 10.1818ZM18.4524 10.1818C18.4524 9.35985 18.3293 8.66667 18.0831 8.10227C17.8407 7.53788 17.4979 7.10985 17.0547 6.81818C16.6115 6.52652 16.0926 6.38068 15.4979 6.38068C14.9032 6.38068 14.3842 6.52652 13.9411 6.81818C13.4979 7.10985 13.1532 7.53788 12.907 8.10227C12.6645 8.66667 12.5433 9.35985 12.5433 10.1818C12.5433 11.0038 12.6645 11.697 12.907 12.2614C13.1532 12.8258 13.4979 13.2538 13.9411 13.5455C14.3842 13.8371 14.9032 13.983 15.4979 13.983C16.0926 13.983 16.6115 13.8371 17.0547 13.5455C17.4979 13.2538 17.8407 12.8258 18.0831 12.2614C18.3293 11.697 18.4524 11.0038 18.4524 10.1818Z" fill="white"/>
</svg>
