<svg width="32" height="22" viewBox="0 0 32 22" fill="none" xmlns="http://www.w3.org/2000/svg">
<path d="M0 3C0 1.34315 1.34315 0 3 0H29C30.6569 0 32 1.34315 32 3V12V19C32 20.6569 30.6569 22 29 22H3C1.34315 22 0 20.6569 0 19V12V3Z" fill="#282B31"/>
<path d="M12.2614 16V4.36364H16.8523C17.7311 4.36364 18.4811 4.52083 19.1023 4.83523C19.7273 5.14583 20.2027 5.58712 20.5284 6.15909C20.858 6.72727 21.0227 7.39583 21.0227 8.16477C21.0227 8.9375 20.8561 9.60227 20.5227 10.1591C20.1894 10.7121 19.7064 11.1364 19.0739 11.4318C18.4451 11.7273 17.6837 11.875 16.7898 11.875H13.7159V9.89773H16.392C16.8617 9.89773 17.2519 9.83333 17.5625 9.70455C17.8731 9.57576 18.1042 9.38258 18.2557 9.125C18.411 8.86742 18.4886 8.54735 18.4886 8.16477C18.4886 7.77841 18.411 7.45265 18.2557 7.1875C18.1042 6.92235 17.8712 6.72159 17.5568 6.58523C17.2462 6.44508 16.8542 6.375 16.3807 6.375H14.7216V16H12.2614ZM18.5455 10.7045L21.4375 16H18.7216L15.892 10.7045H18.5455Z" fill="white"/>
</svg>
