<svg width="32" height="22" viewBox="0 0 32 22" fill="none" xmlns="http://www.w3.org/2000/svg">
<path d="M0 3C0 1.34315 1.34315 0 3 0H29C30.6569 0 32 1.34315 32 3V12V19C32 20.6569 30.6569 22 29 22H3C1.34315 22 0 20.6569 0 19V12V3Z" fill="#282B31"/>
<path d="M17.5817 7.71023C17.5362 7.25189 17.3411 6.89583 16.9964 6.64205C16.6518 6.38826 16.1839 6.26136 15.593 6.26136C15.1915 6.26136 14.8525 6.31818 14.576 6.43182C14.2995 6.54167 14.0874 6.69508 13.9396 6.89205C13.7957 7.08902 13.7237 7.3125 13.7237 7.5625C13.7161 7.77083 13.7597 7.95265 13.8544 8.10795C13.9529 8.26326 14.0874 8.39773 14.2578 8.51136C14.4283 8.62121 14.6252 8.7178 14.8487 8.80114C15.0722 8.88068 15.3108 8.94886 15.5646 9.00568L16.6101 9.25568C17.1177 9.36932 17.5836 9.52083 18.0078 9.71023C18.4321 9.89962 18.7995 10.1326 19.1101 10.4091C19.4207 10.6856 19.6612 11.0114 19.8317 11.3864C20.0059 11.7614 20.0949 12.1913 20.0987 12.6761C20.0949 13.3883 19.9131 14.0057 19.5533 14.5284C19.1972 15.0473 18.6821 15.4508 18.0078 15.7386C17.3374 16.0227 16.5286 16.1648 15.5817 16.1648C14.6423 16.1648 13.8241 16.0208 13.1271 15.733C12.4339 15.4451 11.8923 15.0189 11.5021 14.4545C11.1158 13.8864 10.9131 13.1837 10.8942 12.3466H13.2749C13.3014 12.7367 13.4131 13.0625 13.6101 13.3239C13.8108 13.5814 14.0779 13.7765 14.4112 13.9091C14.7483 14.0379 15.129 14.1023 15.5533 14.1023C15.9699 14.1023 16.3317 14.0417 16.6385 13.9205C16.9491 13.7992 17.1896 13.6307 17.3601 13.4148C17.5305 13.1989 17.6158 12.9508 17.6158 12.6705C17.6158 12.4091 17.5381 12.1894 17.3828 12.0114C17.2313 11.8333 17.0078 11.6818 16.7124 11.5568C16.4207 11.4318 16.0627 11.3182 15.6385 11.2159L14.3714 10.8977C13.3904 10.6591 12.6158 10.286 12.0476 9.77841C11.4794 9.27083 11.1972 8.58712 11.201 7.72727C11.1972 7.02273 11.3847 6.4072 11.7635 5.88068C12.1461 5.35417 12.6707 4.94318 13.3374 4.64773C14.004 4.35227 14.7616 4.20455 15.6101 4.20455C16.4737 4.20455 17.2275 4.35227 17.8714 4.64773C18.5192 4.94318 19.023 5.35417 19.3828 5.88068C19.7427 6.4072 19.9283 7.01705 19.9396 7.71023H17.5817Z" fill="white"/>
</svg>
