<svg width="32" height="22" viewBox="0 0 32 22" fill="none" xmlns="http://www.w3.org/2000/svg">
<path d="M0 3C0 1.34315 1.34315 0 3 0H29C30.6569 0 32 1.34315 32 3V12V19C32 20.6569 30.6569 22 29 22H3C1.34315 22 0 20.6569 0 19V12V3Z" fill="#282B31"/>
<path d="M18.3629 4.36364H20.8232V11.9205C20.8232 12.7689 20.6205 13.5114 20.2152 14.1477C19.8137 14.7841 19.2512 15.2803 18.5277 15.6364C17.8042 15.9886 16.9614 16.1648 15.9993 16.1648C15.0334 16.1648 14.1887 15.9886 13.4652 15.6364C12.7417 15.2803 12.1792 14.7841 11.7777 14.1477C11.3762 13.5114 11.1754 12.7689 11.1754 11.9205V4.36364H13.6357V11.7102C13.6357 12.1534 13.7322 12.5473 13.9254 12.892C14.1224 13.2367 14.3989 13.5076 14.755 13.7045C15.111 13.9015 15.5258 14 15.9993 14C16.4766 14 16.8913 13.9015 17.2436 13.7045C17.5997 13.5076 17.8743 13.2367 18.0675 12.892C18.2644 12.5473 18.3629 12.1534 18.3629 11.7102V4.36364Z" fill="white"/>
</svg>
