<svg width="32" height="22" viewBox="0 0 32 22" fill="none" xmlns="http://www.w3.org/2000/svg">
<path d="M0 3C0 1.34315 1.34315 0 3 0H29C30.6569 0 32 1.34315 32 3V12V19C32 20.6569 30.6569 22 29 22H3C1.34315 22 0 20.6569 0 19V12V3Z" fill="#282B31"/>
<path d="M7.01136 17V5.36364H11.6023C12.4811 5.36364 13.2311 5.52083 13.8523 5.83523C14.4773 6.14583 14.9527 6.58712 15.2784 7.15909C15.608 7.72727 15.7727 8.39583 15.7727 9.16477C15.7727 9.9375 15.6061 10.6023 15.2727 11.1591C14.9394 11.7121 14.4564 12.1364 13.8239 12.4318C13.1951 12.7273 12.4337 12.875 11.5398 12.875H8.46591V10.8977H11.142C11.6117 10.8977 12.0019 10.8333 12.3125 10.7045C12.6231 10.5758 12.8542 10.3826 13.0057 10.125C13.161 9.86742 13.2386 9.54735 13.2386 9.16477C13.2386 8.77841 13.161 8.45265 13.0057 8.1875C12.8542 7.92235 12.6212 7.72159 12.3068 7.58523C11.9962 7.44508 11.6042 7.375 11.1307 7.375H9.47159V17H7.01136ZM13.2955 11.7045L16.1875 17H13.4716L10.642 11.7045H13.2955ZM22.5057 5.36364V17H20.0455V7.69886H19.9773L17.3125 9.36932V7.1875L20.1932 5.36364H22.5057Z" fill="white"/>
</svg>
