<svg width="24" height="24" viewBox="0 0 24 24" fill="none" xmlns="http://www.w3.org/2000/svg">
<rect x="9" y="21" width="6" height="6" rx="0.375" transform="rotate(-90 9 21)" fill="#282B31"/>
<path fill-rule="evenodd" clip-rule="evenodd" d="M8.625 14.25L3.9 14.25C3.81716 14.25 3.75 14.1828 3.75 14.1L3.75 9.9C3.75 9.81716 3.81716 9.75 3.9 9.75L8.625 9.75C9.24632 9.75 9.75 9.24632 9.75 8.625L9.75 3.9C9.75 3.81716 9.81716 3.75 9.9 3.75L14.1 3.75C14.1828 3.75 14.25 3.81716 14.25 3.9L14.25 8.625C14.25 9.24632 14.7537 9.75 15.375 9.75L20.1 9.75C20.1828 9.75 20.25 9.81716 20.25 9.9L20.25 14.1C20.25 14.1828 20.1828 14.25 20.1 14.25L15.75 14.25L15.375 14.25C15.3747 14.25 15.3743 14.25 15.374 14.25L15.75 14.25L15.75 14.85C15.75 14.9328 15.8172 15 15.9 15L20.625 15C20.8321 15 21 14.8321 21 14.625L21 9.375C21 9.16789 20.8321 9 20.625 9L15.375 9C15.1679 9 15 8.83211 15 8.625L15 3.375C15 3.16789 14.8321 3 14.625 3L9.375 3C9.16789 3 9 3.16789 9 3.375L9 8.625C9 8.83211 8.83211 9 8.625 9L3.375 9C3.16789 9 3 9.16789 3 9.375L3 14.625C3 14.8321 3.16789 15 3.375 15L8.1 15C8.18284 15 8.25 14.9328 8.25 14.85L8.25 14.4C8.25 14.3172 8.31716 14.25 8.4 14.25L8.62605 14.25C8.6257 14.25 8.62535 14.25 8.625 14.25Z" fill="#282B31"/>
</svg>
