<svg width="24" height="24" viewBox="0 0 24 24" fill="none" xmlns="http://www.w3.org/2000/svg">
<rect width="6" height="6" rx="0.375" transform="matrix(4.37114e-08 1 1 -4.37114e-08 9 3)" fill="#282B31"/>
<path fill-rule="evenodd" clip-rule="evenodd" d="M8.625 9.75L3.9 9.75C3.81716 9.75 3.75 9.81716 3.75 9.9L3.75 14.1C3.75 14.1828 3.81716 14.25 3.9 14.25L8.625 14.25C9.24632 14.25 9.75 14.7537 9.75 15.375L9.75 20.1C9.75 20.1828 9.81716 20.25 9.9 20.25L14.1 20.25C14.1828 20.25 14.25 20.1828 14.25 20.1L14.25 15.375C14.25 14.7537 14.7537 14.25 15.375 14.25L20.1 14.25C20.1828 14.25 20.25 14.1828 20.25 14.1L20.25 9.9C20.25 9.81716 20.1828 9.75 20.1 9.75L15.75 9.75L15.375 9.75C15.3747 9.75 15.3743 9.75 15.374 9.75L15.75 9.75L15.75 9.15C15.75 9.06716 15.8172 9 15.9 9L20.625 9C20.8321 9 21 9.16789 21 9.375L21 14.625C21 14.8321 20.8321 15 20.625 15L15.375 15C15.1679 15 15 15.1679 15 15.375L15 20.625C15 20.8321 14.8321 21 14.625 21L9.375 21C9.16789 21 9 20.8321 9 20.625L9 15.375C9 15.1679 8.83211 15 8.625 15L3.375 15C3.16789 15 3 14.8321 3 14.625L3 9.375C3 9.16789 3.16789 9 3.375 9L8.1 9C8.18284 9 8.25 9.06716 8.25 9.15L8.25 9.6C8.25 9.68284 8.31716 9.75 8.4 9.75L8.62605 9.75C8.6257 9.75 8.62535 9.75 8.625 9.75Z" fill="#282B31"/>
</svg>
