<svg width="24" height="24" viewBox="0 0 24 24" fill="none" xmlns="http://www.w3.org/2000/svg">
<rect width="6" height="6" rx="0.375" transform="matrix(-1 0 0 1 21 9)" fill="#282B31"/>
<path fill-rule="evenodd" clip-rule="evenodd" d="M14.4 8.25C14.3172 8.25 14.25 8.18284 14.25 8.1V3.9C14.25 3.81716 14.1828 3.75 14.1 3.75H9.9C9.81716 3.75 9.75 3.81716 9.75 3.9V8.625C9.75 9.24632 9.24632 9.75 8.625 9.75H3.9C3.81716 9.75 3.75 9.81716 3.75 9.9V14.1C3.75 14.1828 3.81716 14.25 3.9 14.25H8.625C9.24632 14.25 9.75 14.7537 9.75 15.375V20.1C9.75 20.1828 9.81716 20.25 9.9 20.25H14.1C14.1828 20.25 14.25 20.1828 14.25 20.1V15.9C14.25 15.8172 14.3172 15.75 14.4 15.75H14.85C14.9328 15.75 15 15.8172 15 15.9V20.625C15 20.8321 14.8321 21 14.625 21H9.375C9.16789 21 9 20.8321 9 20.625V15.375C9 15.1679 8.83211 15 8.625 15H3.375C3.16789 15 3 14.8321 3 14.625V9.375C3 9.16789 3.16789 9 3.375 9H8.625C8.83211 9 9 8.83211 9 8.625V3.375C9 3.16789 9.16789 3 9.375 3H14.625C14.8321 3 15 3.16789 15 3.375V8.1C15 8.18284 14.9328 8.25 14.85 8.25H14.4Z" fill="#282B31"/>
</svg>
