<svg width="24" height="24" viewBox="0 0 24 24" fill="none" xmlns="http://www.w3.org/2000/svg">
<rect x="3" y="9" width="6" height="6" rx="0.375" fill="#282B31"/>
<path fill-rule="evenodd" clip-rule="evenodd" d="M9.6 8.25C9.68284 8.25 9.75 8.18284 9.75 8.1V3.9C9.75 3.81716 9.81716 3.75 9.9 3.75H14.1C14.1828 3.75 14.25 3.81716 14.25 3.9V8.625C14.25 9.24632 14.7537 9.75 15.375 9.75H20.1C20.1828 9.75 20.25 9.81716 20.25 9.9V14.1C20.25 14.1828 20.1828 14.25 20.1 14.25H15.375C14.7537 14.25 14.25 14.7537 14.25 15.375V20.1C14.25 20.1828 14.1828 20.25 14.1 20.25H9.9C9.81716 20.25 9.75 20.1828 9.75 20.1V15.9C9.75 15.8172 9.68284 15.75 9.6 15.75H9.15C9.06716 15.75 9 15.8172 9 15.9V20.625C9 20.8321 9.16789 21 9.375 21H14.625C14.8321 21 15 20.8321 15 20.625V15.375C15 15.1679 15.1679 15 15.375 15H20.625C20.8321 15 21 14.8321 21 14.625V9.375C21 9.16789 20.8321 9 20.625 9H15.375C15.1679 9 15 8.83211 15 8.625V3.375C15 3.16789 14.8321 3 14.625 3H9.375C9.16789 3 9 3.16789 9 3.375V8.1C9 8.18284 9.06716 8.25 9.15 8.25H9.6Z" fill="#282B31"/>
</svg>
